<svg style="position: absolute; width: 0; height: 0; overflow: hidden;" version="1.1"
     xmlns="http://www.w3.org/2000/svg">
    <defs>
        <symbol id="icon-github" viewBox="0 0 17 14">
            <path d="M7.512.15C3.732.15.67 3.124.67 6.794c0 2.936 1.96 5.427 4.677 6.305.343.062.468-.143.468-.32 0-.158-.006-.576-.009-1.13-1.903.4-2.304-.891-2.304-.891-.311-.767-.76-.972-.76-.972-.62-.412.047-.404.047-.404.687.046 1.048.685 1.048.685.61 1.016 1.601.722 1.992.553.062-.43.238-.723.433-.89-1.519-.165-3.116-.737-3.116-3.283 0-.725.266-1.318.704-1.783-.076-.168-.307-.844.06-1.759 0 0 .573-.178 1.882.682a6.751 6.751 0 0 1 1.71-.225 6.751 6.751 0 0 1 1.71.225c1.3-.86 1.873-.682 1.873-.682.367.915.136 1.591.068 1.76.436.464.701 1.057.701 1.782 0 2.553-1.599 3.115-3.12 3.278.239.2.46.607.46 1.23 0 .89-.008 1.604-.008 1.82 0 .174.12.382.47.315 2.738-.872 4.696-3.364 4.696-6.296 0-3.67-3.063-6.646-6.841-6.646z"
                  fill="#55678B"/>
        </symbol>
        <symbol id="icon-telegram" viewBox="0 0 17 14">
            <path d="M1.605 5.48L15.31.214c.636-.23 1.192.154.986 1.113v-.001L13.964 12.28c-.173.777-.636.966-1.284.6l-3.554-2.61-1.714 1.645c-.19.19-.35.348-.716.348l.252-3.603 6.586-5.93c.287-.25-.064-.392-.442-.142L4.952 7.695l-3.508-1.09c-.762-.241-.779-.76.16-1.125z"
                  fill="#55678B"/>
        </symbol>
        <symbol id="icon-twitter" viewBox="0 0 17 14">
            <path d="M16.473 1.674c-.59.258-1.217.43-1.872.513A3.231 3.231 0 0 0 16.031.39a6.493 6.493 0 0 1-2.061.787A3.248 3.248 0 0 0 8.35 3.4c0 .257.021.505.075.74A9.197 9.197 0 0 1 1.728.742a3.254 3.254 0 0 0 .998 4.343 3.209 3.209 0 0 1-1.468-.4v.035a3.264 3.264 0 0 0 2.604 3.192 3.243 3.243 0 0 1-.852.107c-.208 0-.418-.012-.615-.055a3.28 3.28 0 0 0 3.036 2.263 6.528 6.528 0 0 1-4.029 1.386c-.266 0-.522-.012-.777-.045a9.147 9.147 0 0 0 4.984 1.458c5.979 0 9.248-4.952 9.248-9.245 0-.144-.005-.283-.012-.42a6.481 6.481 0 0 0 1.628-1.687z"
                  fill="#55678B"/>
        </symbol>
        <symbol id="icon-medium" viewBox="0 0 32 32">
            <path d="M4.469 8.894c0.037-0.369-0.106-0.738-0.381-0.987l-2.819-3.4v-0.506h8.762l6.775 14.856 5.956-14.856h8.356v0.506l-2.413 2.313c-0.206 0.156-0.313 0.419-0.269 0.675v17c-0.044 0.256 0.063 0.519 0.269 0.675l2.356 2.313v0.506h-11.856v-0.506l2.444-2.369c0.238-0.238 0.238-0.313 0.238-0.675v-13.738l-6.794 17.244h-0.919l-7.9-17.244v11.556c-0.069 0.488 0.094 0.975 0.438 1.325l3.175 3.85v0.506h-9v-0.5l3.175-3.856c0.338-0.35 0.494-0.844 0.406-1.325v-13.363z"
                  fill="#55678B"></path>
        </symbol>
        <symbol id="icon-wallet" viewBox="0 0 22 20">
            <path d="M19.319 15.006V2.654L5.287 5.705v12.363l14.032-3.062zM0 15.7V1.586C0 1.112.387.725.862.725H20.18c.477 0 .862.387.862.861v14.157l-.003.01v.033l-.003.005v.018h-.002l-.003.018v.003l-.002.015-.003.018-.002.01v.008a.87.87 0 0 1-.255.448l-.01.008-.005.003-.013.012a.888.888 0 0 1-.15.105l-.016.007-.002.003-.016.005-.002.003-.013.005a.812.812 0 0 1-.22.069L4.65 19.968a.863.863 0 0 1-1.086-.834v-2.574H.862A.864.864 0 0 1 0 15.7zM12.161 2.448H1.723v12.388h1.84V5.012a.86.86 0 0 1 .681-.841l7.917-1.723z"
            />
            <path d="M8.04 8.212a.86.86 0 0 1-.384-1.677l3.385-.78a.858.858 0 1 1 .385 1.675l-3.385.782z"/>
        </symbol>
        <symbol id="icon-dvpn" viewBox="0 0 17 22">
            <path d="M14.759 7.822h-1.893V2.26A2.253 2.253 0 0 0 10.625 0h-4.25a2.253 2.253 0 0 0-2.241 2.26v5.562H2.241A2.253 2.253 0 0 0 0 10.082v9.659A2.253 2.253 0 0 0 2.241 22H14.76A2.253 2.253 0 0 0 17 19.74v-9.658a2.253 2.253 0 0 0-2.241-2.26zM5.815 2.26c0-.311.251-.564.56-.564h4.25c.309 0 .56.253.56.564v5.563h-5.37V2.26zm9.504 17.482a.563.563 0 0 1-.56.564H2.24a.563.563 0 0 1-.56-.564v-9.66c0-.311.251-.564.56-.564H14.76c.309 0 .56.253.56.565v9.659zm-7.66-2.984H9.34v-3.578H7.66v3.578z"
            />
        </symbol>
        <symbol id="icon-setting" viewBox="0 0 16 17">
            <path d="M.063 10.54a1.802 1.802 0 0 0 .181 1.379l.848 1.465a1.82 1.82 0 0 0 2.484.665l.371-.216c.42.308.874.57 1.351.782v.432c0 1.01.826 1.834 1.827 1.834H8.82a1.837 1.837 0 0 0 1.827-1.835v-.431c.477-.212.93-.474 1.35-.783l.374.217a1.821 1.821 0 0 0 2.483-.665l.847-1.466a1.816 1.816 0 0 0-.666-2.48l-.376-.216a6.76 6.76 0 0 0 0-1.563l.376-.216a1.818 1.818 0 0 0 .665-2.48l-.847-1.466a1.82 1.82 0 0 0-2.484-.665l-.371.216a7.247 7.247 0 0 0-1.351-.782v-.432C10.647.824 9.822 0 8.82 0H7.125a1.837 1.837 0 0 0-1.827 1.834v.432c-.477.212-.93.474-1.35.783l-.374-.217a1.818 1.818 0 0 0-2.482.665L.244 4.962A1.816 1.816 0 0 0 .91 7.443l.375.216c-.06.52-.06 1.044 0 1.563l-.375.216a1.806 1.806 0 0 0-.847 1.103zm1.46-.042l1.11-.64-.078-.424a5.544 5.544 0 0 1 0-1.986l.077-.425-1.11-.64a.594.594 0 0 1-.216-.81l.847-1.465a.594.594 0 0 1 .811-.217l1.112.64.33-.28a5.467 5.467 0 0 1 1.716-.993l.398-.145V1.834c0-.33.284-.614.605-.614H8.82c.32 0 .605.283.605.614v1.28l.4.144c.628.225 1.21.561 1.717.994l.327.28 1.113-.641a.595.595 0 0 1 .81.216l.847 1.466a.593.593 0 0 1-.217.81l-1.11.64.078.424c.12.656.12 1.33 0 1.986l-.077.425 1.11.64a.594.594 0 0 1 .216.81l-.847 1.465a.594.594 0 0 1-.811.217l-1.112-.64-.33.279a5.468 5.468 0 0 1-1.716.994l-.398.145v1.278c0 .33-.284.615-.605.615H7.125a.624.624 0 0 1-.605-.615v-1.278l-.4-.146a5.482 5.482 0 0 1-1.717-.993l-.327-.28-1.113.641a.595.595 0 0 1-.81-.217l-.848-1.466a.593.593 0 0 1 .218-.81z"
                  fill="#8EA1C8"/>
            <path d="M7.972 12.083a3.651 3.651 0 0 0 3.37-2.249 3.638 3.638 0 0 0-.79-3.97A3.65 3.65 0 0 0 4.325 8.44a3.644 3.644 0 0 0 1.07 2.575 3.654 3.654 0 0 0 2.577 1.068zm0-6.062a2.425 2.425 0 0 1 2.239 1.494 2.416 2.416 0 0 1-1.766 3.299 2.427 2.427 0 0 1-2.487-1.03A2.417 2.417 0 0 1 6.26 6.73a2.427 2.427 0 0 1 1.712-.709z"
                  fill="#8EA1C8"/>
        </symbol>
        <symbol id="icon-profile" viewBox="0 0 20 20">
            <path d="M6.9 9.52a4 4 0 1 1 6.2 0 10 10 0 0 1 5.82 5 10 10 0 1 0-17.84 0 10 10 0 0 1 5.82-5z"
                  fill="#BAD0DE"/>
            <path d="M10 11.02a8 8 0 0 0-7.59 5.49 10.001 10.001 0 0 0 15.18 0A8 8 0 0 0 10 11.02zM10 9.02a2 2 0 1 0 0-4 2 2 0 0 0 0 4z"
                  fill="#BAD0DE"/>
        </symbol>
        <symbol id="icon-copy" viewBox="0 0 11 9">
            <path d="M2.538 2.361a.651.651 0 0 0-.448.176.583.583 0 0 0-.185.423v4.192c0 .16.067.312.185.424.119.112.28.175.448.175h6.326a.664.664 0 0 0 .447-.175.598.598 0 0 0 .185-.424V2.96a.571.571 0 0 0-.185-.423.636.636 0 0 0-.447-.176H2.538zm0-.599h6.326c.335 0 .657.126.894.351.237.225.37.53.37.847v4.192c0 .318-.133.623-.37.847-.237.225-.559.351-.894.351H2.538c-.336 0-.658-.126-.895-.35a1.166 1.166 0 0 1-.37-.848V2.96c0-.318.133-.622.37-.847.237-.225.56-.35.895-.35zm.632 2.396H5.7v.599H3.17v-.6zm0 1.797h4.428v.598H3.17v-.598zm-2.53.598V2.062c0-.239.1-.467.278-.636a.977.977 0 0 1 .67-.263h7.276a.332.332 0 0 0 .223-.087.299.299 0 0 0 .093-.212.286.286 0 0 0-.093-.212.318.318 0 0 0-.223-.088H1.589c-.42 0-.822.158-1.118.439-.297.28-.464.662-.464 1.059v4.491a.286.286 0 0 0 .093.212.318.318 0 0 0 .224.088.332.332 0 0 0 .223-.088.299.299 0 0 0 .093-.212z"
                  fill="#55678B"/>
        </symbol>
        <symbol id="icon-success" viewBox="0 0 14 14">
            <path d="M12.6 4.2v4.2a4.205 4.205 0 0 1-4.2 4.2H4.2a.7.7 0 1 0 0 1.4h4.2A5.606 5.606 0 0 0 14 8.4V4.2a.7.7 0 1 0-1.4 0z"
                  fill="#1AB132"/>
            <path d="M8.4 11.9a3.504 3.504 0 0 0 3.5-3.5V3.5A3.504 3.504 0 0 0 8.4 0H3.5A3.504 3.504 0 0 0 0 3.5v4.9a3.504 3.504 0 0 0 3.5 3.5h4.9zM4.067 5.19l.895 1.237 2.962-2.741a.7.7 0 0 1 .951 1.028L5.333 7.991a.7.7 0 0 1-1.042-.104L2.933 6.01a.7.7 0 0 1 1.134-.82z"
                  fill="#1AB132"/>
        </symbol>
        <symbol id="icon-download" viewBox="0 0 12 12">
            <path d="M11.34 12H.66C.3 12 0 11.713 0 11.371c0-.341.301-.628.66-.628h10.68c.359 0 .66.287.66.628 0 .342-.301.629-.66.629zM6.01 9.287c-.358 0-.66-.287-.66-.628V.629c0-.342.302-.629.66-.629.357 0 .659.287.659.629v8.03c0 .341-.302.628-.66.628z"
                  fill="#55678B"/>
            <path d="M6.01 9.287a.671.671 0 0 1-.471-.18l-3.09-2.963c-.264-.252-.264-.647 0-.88a.659.659 0 0 1 .923 0l3.09 2.946c.263.251.263.646 0 .88a.555.555 0 0 1-.453.197z"
                  fill="#55678B"/>
            <path d="M6.01 9.287a.671.671 0 0 1-.472-.18c-.263-.25-.263-.646 0-.88l3.109-2.964a.659.659 0 0 1 .923 0c.264.252.264.647 0 .88L6.48 9.109a.671.671 0 0 1-.47.18z"
                  fill="#55678B"/>
        </symbol>
        <symbol id="icon-tooltip" viewBox="0 0 17 17">
            <circle cx="8.5" cy="8.5" r="8" stroke="#55678B"/>
            <path d="M8.045 10.38c0-.546.066-.982.2-1.306.132-.324.374-.642.726-.955.355-.316.591-.572.709-.767.117-.2.175-.409.175-.627 0-.66-.304-.99-.914-.99-.289 0-.521.09-.697.269-.172.176-.262.42-.27.732H6.276c.008-.746.248-1.33.721-1.752.477-.421 1.125-.632 1.945-.632.829 0 1.471.2 1.928.603.457.399.686.963.686 1.693 0 .332-.075.647-.223.944-.148.293-.408.619-.78.978l-.474.451c-.297.286-.467.62-.51 1.002l-.023.358h-1.5zm-.17 1.8c0-.262.088-.477.264-.645a.952.952 0 0 1 .685-.258c.278 0 .504.086.68.258.18.168.27.383.27.645 0 .258-.088.47-.264.638-.172.168-.4.252-.686.252-.285 0-.515-.084-.691-.252a.855.855 0 0 1-.258-.638z"
                  fill="#8EA1C8"/>
        </symbol>
        <symbol id="icon-errorInfo" viewBox="0 0 22 22">
            <path fill-rule="evenodd" clip-rule="evenodd"
                  d="M11 22c6.075 0 11-4.925 11-11S17.075 0 11 0 0 4.925 0 11s4.925 11 11 11zm0-2a9 9 0 1 0 0-18 9 9 0 0 0 0 18zM10 6h2v7h-2V6zm0 8h2v2h-2v-2z"
                  fill="#DC3545"/>
        </symbol>
        <symbol id="icon-arrowDown" viewBox="0 0 51 51">
            <path fill-rule="evenodd" clip-rule="evenodd"
                  d="M24.503 46.407L23.921.33l2.155-.028.582 46.077L48.79 23.958l1.528 1.464-24.688 24.89L.321 26.054l1.382-1.5 22.8 21.853z"
                  fill="#818181"/>
        </symbol>
        <symbol id="icon-arrowUp" viewBox="0 0 50 50">
            <path fill-rule="evenodd" clip-rule="evenodd"
                  d="M26.078 3.92V50h-2.156V3.92L1.51 26.06 0 24.575 25 0l25 24.576-1.4 1.483L26.077 3.92z"
                  fill="#818181"/>
        </symbol>
        <symbol id="icon-delete" viewBox="0 0 22 25">
            <path d="M21 4.005h-5.1a5 5 0 0 0-9.8 0H1a1 1 0 0 0 0 2h1v14.5a3.5 3.5 0 0 0 3.5 3.5h11a3.5 3.5 0 0 0 3.5-3.5v-14.5h1a1 1 0 1 0 0-2zm-10-2a3 3 0 0 1 2.82 2H8.18a3 3 0 0 1 2.82-2zm7 18.5a1.5 1.5 0 0 1-1.5 1.5h-11a1.5 1.5 0 0 1-1.5-1.5v-14.5h14v14.5z"
                  fill="#109FEC"/>
            <path d="M7 19.005a1 1 0 0 0 1-1v-8a1 1 0 0 0-2 0v8a1 1 0 0 0 1 1zM11 19.005a1 1 0 0 0 1-1v-8a1 1 0 0 0-2 0v8a1 1 0 0 0 1 1zM15 19.005a1 1 0 0 0 1-1v-8a1 1 0 0 0-2 0v8a1 1 0 0 0 1 1z"
                  fill="#109FEC"/>
        </symbol>
        <symbol id="icon-eye-closed" viewBox="0 0 16 12">
            <path d="M4.902 6.485a3.29 3.29 0 0 1-.09-.71 3 3 0 0 1 3-3h.24l.81-.94a7.309 7.309 0 0 0-1.05-.06c-3.61 0-6.66 2.67-7.66 3.65a.48.48 0 0 0 0 .7c.925.9 1.96 1.679 3.08 2.32l1.67-1.96zM15.472 5.425c-.925-.9-1.96-1.68-3.08-2.32l-1.67 2c.052.22.083.444.09.67a3 3 0 0 1-3 3h-.24l-.76.92c.33.05.665.076 1 .08 3.61 0 6.66-2.67 7.66-3.65a.478.478 0 0 0 0-.7zM12.812.775l-.84-.72a.22.22 0 0 0-.29 0l-8.87 10.4a.211.211 0 0 0-.055.248.21.21 0 0 0 .055.072l.83.71a.22.22 0 0 0 .29 0l8.88-10.4a.19.19 0 0 0 0-.31z"/>
        </symbol>
        <symbol id="icon-eye-open" viewBox="0 0 16 8">
            <path d="M7.81 0C4.67 0 1.863 1.556 0 4c1.863 2.444 4.67 4 7.81 4 3.14 0 5.947-1.556 7.81-4-1.863-2.444-4.67-4-7.81-4zm0 6.985C6.044 6.985 4.612 5.65 4.612 4c0-1.649 1.432-2.985 3.198-2.985S11.008 2.35 11.008 4c0 1.649-1.431 2.985-3.198 2.985zm0-4.47c-.879 0-1.59.665-1.59 1.485 0 .82.711 1.485 1.59 1.485.879 0 1.59-.665 1.59-1.485 0-.82-.711-1.485-1.59-1.485z"
                  fill="#000"/>
        </symbol>
        <symbol id="icon-keys" viewBox="0 0 14 17">
            <path d="M13.442 3.396C8.93 2.95 7.631.446 7.575.34A.613.613 0 0 0 7.018 0a.624.624 0 0 0-.557.34C6.387.447 5.07 2.95.557 3.396A.612.612 0 0 0 0 4.004v4.38c0 5.148 6.443 8.401 6.721 8.544.093.036.186.072.279.072a.498.498 0 0 0 .278-.072c.279-.143 6.721-3.378 6.721-8.544V3.986c.019-.304-.241-.554-.557-.59zm-.687 4.988c0 3.843-4.549 6.632-5.755 7.311-1.207-.68-5.756-3.45-5.756-7.311V4.523C4.494 4.076 6.2 2.61 7 1.68c.798.93 2.506 2.396 5.755 2.843v3.86z"
                  fill="#8EA1C8"/>
            <path d="M4.586 6.506c0 1.073.761 1.967 1.782 2.235v4.308c0 .34.279.608.632.608a.615.615 0 0 0 .63-.608v-.68h.78a.615.615 0 0 0 .632-.607.615.615 0 0 0-.631-.608h-.78V8.741c1.021-.268 1.782-1.162 1.782-2.235C9.413 5.22 8.336 4.183 7 4.183 5.663 4.2 4.586 5.237 4.586 6.506zm3.565 0c0 .608-.52 1.109-1.151 1.109-.632 0-1.152-.5-1.152-1.109 0-.607.52-1.108 1.152-1.108.63 0 1.15.5 1.15 1.108z"
                  fill="#8EA1C8"/>
        </symbol>
        <symbol id="icon-lock" viewBox="0 0 17 22">
            <path d="M14.7587 7.8222H12.866V2.25937C12.866 1.01333 11.8605 0 10.6247 0H6.37528C5.1395 0 4.13402 1.01333 4.13402 2.25937V7.8222H2.24127C1.00549 7.8222 0 8.83553 0 10.0816V19.7406C0 20.9867 1.00549 22 2.24127 22H14.7587C15.9945 22 17 20.9867 17 19.7406V10.0816C17 8.83553 15.9945 7.8222 14.7587 7.8222ZM5.81496 2.25937C5.81496 1.94757 6.06627 1.69452 6.37528 1.69452H10.6247C10.9337 1.69452 11.185 1.94757 11.185 2.25937V7.8222H5.81496V2.25937ZM15.3191 19.7406C15.3191 20.0524 15.0677 20.3055 14.7587 20.3055H2.24127C1.93225 20.3055 1.68095 20.0524 1.68095 19.7406V10.0816C1.68095 9.76978 1.93225 9.51673 2.24127 9.51673H14.7587C15.0677 9.51673 15.3191 9.76978 15.3191 10.0816V19.7406ZM7.65953 16.7566H9.34048V13.1794H7.65953V16.7566Z" fill="white"/>
        </symbol>
        <symbol id="icon-time" viewBox="0 0 15 15">
            <path d="M0.00205963 8.10937C-0.00461443 8.03144 0.00497314 7.95298 0.0302165 7.87894C0.0554598 7.8049 0.0958101 7.7369 0.148717 7.67922C0.201624 7.62155 0.265938 7.57546 0.337594 7.54387C0.40925 7.51227 0.48669 7.49587 0.56502 7.49568C0.715969 7.49462 0.861855 7.54998 0.974002 7.65087C1.08615 7.75176 1.15644 7.89089 1.17107 8.0409C1.29374 9.47995 1.90458 10.8341 2.90261 11.8795C3.90064 12.9249 5.22609 13.5989 6.65981 13.79C8.09352 13.9812 9.54965 13.6781 10.7874 12.9309C12.0252 12.1836 12.9706 11.037 13.4671 9.6805C13.9637 8.32403 13.9818 6.83896 13.5183 5.47084C13.0549 4.10272 12.1378 2.93348 10.9185 2.15643C9.69929 1.37938 8.25096 1.04105 6.81302 1.1974C5.37507 1.35374 4.03362 1.99539 3.01045 3.01625L4.24954 4.25157C4.26644 4.26843 4.27795 4.28993 4.28261 4.31333C4.28727 4.33673 4.28487 4.36099 4.27572 4.38303C4.26656 4.40506 4.25106 4.42389 4.23118 4.43713C4.2113 4.45037 4.18793 4.45741 4.16404 4.45738H0.737633C0.705584 4.4574 0.674837 4.44472 0.652158 4.4221C0.629478 4.39949 0.616723 4.36881 0.616698 4.33681V0.920848C0.616735 0.896983 0.623853 0.873663 0.637153 0.853834C0.650452 0.834004 0.669338 0.818554 0.691425 0.809432C0.713511 0.800311 0.73781 0.797928 0.761252 0.802584C0.784694 0.80724 0.806229 0.818726 0.823139 0.835593L2.18283 2.19115C3.39414 0.984216 4.98187 0.226443 6.68326 0.043245C8.38464 -0.139953 10.0977 0.262407 11.5388 1.18373C12.98 2.10506 14.0629 3.49011 14.6083 5.10966C15.1537 6.72921 15.1289 8.48615 14.538 10.0897C13.9471 11.6933 12.8256 13.0473 11.359 13.9277C9.89238 14.8081 8.16867 15.1621 6.47313 14.9311C4.77759 14.7001 3.21188 13.898 2.03511 12.6575C0.858353 11.4169 0.141098 9.81237 0.00205963 8.10937ZM7.50268 3.14617C7.34756 3.14605 7.19875 3.20746 7.08898 3.31689C6.97921 3.42632 6.91747 3.57482 6.91735 3.7297V7.49567C6.91736 7.57232 6.93251 7.64823 6.96192 7.71903C6.99134 7.78983 7.03445 7.85415 7.08879 7.9083L9.75992 10.5712C9.86953 10.6808 10.0182 10.7425 10.1734 10.7426C10.3285 10.7427 10.4773 10.6813 10.5871 10.5719C10.6968 10.4624 10.7586 10.3139 10.7587 10.1591C10.7588 10.0042 10.6973 9.85559 10.5877 9.74599L8.08799 7.25398V3.7297C8.08787 3.57482 8.02614 3.42633 7.91637 3.3169C7.8066 3.20746 7.6578 3.14605 7.50268 3.14617Z" fill="#8EA1C8"/>
        </symbol>
    </defs>
</svg>
